Coordinates
version=1
nRows=30
nColumns=19
inDegrees=yes

Units are S.I. units (second, meters, Newtons, ...)
If the header above contains a line with 'inDegrees', this indicates whether rotational values are in degrees (yes) or radians (no).

endheader
time	pelvis_tilt	pelvis_list	pelvis_rotation	pelvis_tx	pelvis_ty	pelvis_tz	hip_flexion_r	hip_adduction_r	hip_rotation_r	knee_angle_r	knee_angle_r_beta	ankle_angle_r	hip_flexion_l	hip_adduction_l	hip_rotation_l	knee_angle_l	knee_angle_l_beta	ankle_angle_l
     13.74666667	     -3.59196132	      7.96570578	      2.32133776	      2.30206105	      0.99927081	      1.00160954	    -13.35280761	    -15.11608870	    -15.54460813	     67.95625281	      1.18606036	    -13.70300988	     26.89451489	     10.22937459	     -9.86186153	     10.17386226	      0.17756739	      2.68293737
     13.75333333	     -3.58196260	      8.61567066	      2.91962560	      2.30070806	      0.99525343	      1.00029406	    -11.68489893	    -16.36934499	    -15.91319669	     72.11738896	      1.25868589	    -13.08112516	     27.23598511	     10.84445132	    -10.96498973	     13.00812409	      0.22703459	      2.60587859
     13.76000000	     -3.37577087	      9.30793150	      3.47438846	      2.29905632	      0.99128200	      0.99926794	    -10.08670633	    -17.58865913	    -16.03970600	     76.14879304	      1.32904716	    -12.40029595	     27.46852866	     11.35435231	    -12.05397118	     16.38011007	      0.28588685	      2.63888830
     13.76666667	     -3.11912135	      9.91122879	      3.92112790	      2.29713184	      0.98722278	      0.99854046	     -8.31643804	    -18.61932542	    -15.78394045	     80.06282679	      1.39735994	    -11.65882706	     27.70555111	     11.62733771	    -13.02120313	     20.15448765	      0.35176217	      3.02854176
     13.77333333	     -2.74863502	     10.41613974	      4.26087391	      2.29488143	      0.98327745	      0.99818678	     -6.44656250	    -19.43478827	    -15.20914273	     83.80065558	      1.46259736	    -10.88547323	     27.80209922	     11.70269584	    -13.70738721	     24.10443759	      0.42070180	      3.68184743
     13.78000000	     -2.40783317	     10.80785806	      4.50682532	      2.29232143	      0.97936645	      0.99810285	     -4.29570469	    -20.01572548	    -14.30567645	     87.37524884	      1.52498578	    -10.10181867	     27.82698962	     11.64938516	    -14.04043701	     27.99581480	      0.48861915	      4.69092633
     13.78666667	     -1.85179409	     11.11543100	      4.60007069	      2.28944875	      0.97592924	      0.99833982	     -2.15196474	    -20.35954482	    -13.11982778	     90.69722767	      1.58296525	     -9.34463985	     27.45287871	     11.51853934	    -14.06399985	     31.64969455	      0.55239138	      6.10219059
     13.79333333	     -1.48296969	     11.33715146	      4.66665351	      2.28631933	      0.97256108	      0.99867475	      0.39300618	    -20.52245476	    -11.74428573	     93.81053637	      1.63730273	     -8.59467866	     27.07941802	     11.39968792	    -13.76800184	     34.97197564	      0.61037612	      7.84579183
     13.80000000	     -0.91869399	     11.46394804	      4.59276034	      2.28293015	      0.96985970	      0.99922094	      2.90642245	    -20.43293216	    -10.18464603	     96.60506092	      1.68607639	     -7.93027470	     26.24224537	     11.23290338	    -13.31109221	     37.84493465	      0.66051871	      9.93323096
     13.80666667	     -0.35419256	     11.49610853	      4.44638201	      2.27939531	      0.96768870	      0.99992387	      5.54052972	    -20.08927430	     -8.50767435	     99.05863917	      1.72889941	     -7.31092856	     25.13790239	     11.03509806	    -12.73479828	     40.24776110	      0.70245595	     12.22778737
     13.81333333	     -0.06643498	     11.41230584	      4.31751207	      2.27587770	      0.96573759	      1.00060579	      8.54924913	    -19.52974927	     -6.80920338	    101.18952244	      1.76609034	     -6.79286104	     24.02556476	     10.82374602	    -12.04680737	     42.12386557	      0.73520015	     14.67527427
     13.82000000	      0.28547901	     11.18916959	      4.12773143	      2.27242363	      0.96442288	      1.00134709	     11.49164666	    -18.68944316	     -5.15106954	    102.90866745	      1.79609508	     -6.36103798	     22.54673127	     10.50120356	    -11.35451098	     43.48514324	      0.75895893	     17.14419883
     13.82666667	      0.79657941	     11.01302367	      4.18896770	      2.26935678	      0.96393256	      1.00169776	     13.98549693	    -17.99211869	     -3.99275721	    104.12791479	      1.81737496	     -5.93056487	     20.48867428	     10.44498127	    -10.25002895	     44.17365997	      0.77097581	     19.59827720
     13.83333333	      0.60458667	     10.25514234	      3.73150171	      2.26634829	      0.96314459	      1.00273828	     17.57021527	    -16.21453548	     -2.20920663	    105.06185413	      1.83367527	     -5.74920536	     19.11158754	      9.48166684	     -9.96506479	     44.69756372	      0.78011965	     21.76654882
     13.84000000	      0.33175178	      9.56194319	      3.62366356	      2.26398971	      0.96280874	      1.00315175	     20.84934111	    -14.74242815	     -1.09119116	    105.50641003	      1.84143424	     -5.58826984	     17.46216334	      8.82763916	     -9.23550295	     44.63451529	      0.77901925	     23.77861781
     13.84666667	      0.16639330	      8.70738883	      3.51189125	      2.26218090	      0.96319101	      1.00347064	     23.77356165	    -13.09713076	     -0.27005463	    105.45107393	      1.84046844	     -5.48271713	     15.43596069	      8.00774025	     -8.53330144	     44.12227858	      0.77007903	     25.43575313
     13.85333333	     -0.16928067	      7.71887820	      3.40814075	      2.26094975	      0.96392651	      1.00360371	     26.66281052	    -11.38678731	      0.28642034	    104.95185595	      1.83175544	     -5.41799988	     13.39099573	      7.07551220	     -7.85294921	     43.23717717	      0.75463110	     26.65262926
     13.86000000	     -0.62238433	      6.60740269	      3.30182641	      2.26039268	      0.96502936	      1.00364203	     29.42439182	     -9.62152628	      0.58182701	    104.01699799	      1.81543909	     -5.33609773	     11.29109977	      6.02462285	     -7.21727606	     42.01240581	      0.73325481	     27.35969092
     13.86666667	     -1.15516860	      5.49688629	      3.28515577	      2.26034638	      0.96650851	      1.00336203	     32.02227324	     -8.05899295	      0.57733229	    102.67243086	      1.79197197	     -5.29892428	      9.13227694	      5.03063396	     -6.49007042	     40.47941707	      0.70649911	     27.59259928
     13.87333333	     -1.48379345	      4.18629195	      3.06116390	      2.26091214	      0.96864355	      1.00327862	     34.14685094	     -6.27386499	      0.42239323	    100.88502933	      1.76077593	     -5.17520886	      6.63577547	      3.70986091	     -6.17394716	     38.68743315	      0.67522309	     27.25633936
     13.88000000	     -1.78718192	      2.93194141	      2.88334838	      2.26199076	      0.97123238	      1.00307902	     35.98991673	     -4.70930995	      0.06325558	     98.73656313	      1.72327812	     -4.97371724	      3.99008158	      2.49335865	     -5.81718366	     36.59632669	      0.63872639	     26.30449507
     13.88666667	     -2.16924418	      1.69999135	      2.68451486	      2.26349907	      0.97408180	      1.00284084	     37.69753522	     -3.29849106	     -0.43859070	     96.24592967	      1.67980836	     -4.85082623	      1.37136778	      1.29946815	     -5.59758666	     34.31602310	      0.59892759	     24.69421515
     13.89333333	     -3.25082612	      0.58236196	      2.67566406	      2.26528548	      0.97632610	      1.00256476	     39.96153020	     -2.19522409	     -1.09324209	     93.51083383	      1.63207194	     -4.54798025	     -0.38580913	      0.26111801	     -5.20172936	     32.12848543	      0.56074785	     22.52556060
     13.90000000	     -2.73553435	     -0.53323889	      2.22219056	      2.26759545	      0.98071927	      1.00259667	     40.21350962	     -0.92483526	     -1.66597209	     90.34346800	      1.57679097	     -4.17754284	     -4.21431337	     -0.83213709	     -5.49985799	     29.21122727	      0.50983209	     19.62177898
     13.90666667	     -3.17259419	     -1.48223301	      1.89121894	      2.26998430	      0.98402654	      1.00268647	     41.36437702	      0.05207233	     -2.27205739	     87.01008930	      1.51861254	     -3.85368142	     -6.80465963	     -1.70796435	     -5.74124679	     26.58135407	      0.46393215	     16.20243637
     13.91333333	     -3.62430914	     -2.31934273	      1.58928202	      2.27251000	      0.98733870	      1.00281695	     42.33104246	      0.82465150	     -2.97067247	     83.42622105	      1.45606224	     -3.52305392	     -9.28897920	     -2.46403406	     -6.05745403	     23.99604069	      0.41880992	     12.33026304
     13.92000000	     -4.25431163	     -2.95955064	      1.20668996	      2.27506033	      0.99037061	      1.00314081	     43.33683341	      1.43182165	     -3.58690483	     79.64663096	      1.39009595	     -3.21021233	    -11.44752755	     -3.00141750	     -6.54861537	     21.55273740	      0.37616623	      8.06536038
     13.92666667	     -5.79629356	     -3.43282939	      1.15822971	      2.27731773	      0.99216067	      1.00336471	     45.17171655	      1.55973023	     -4.51405370	     75.70069098	      1.32122630	     -2.85582761	    -11.94820207	     -3.56805892	     -6.99247864	     20.23308692	      0.35313398	      3.67565128
     13.93333333	     -5.64076513	     -3.74624682	      0.47246271	      2.28005527	      0.99587788	      1.00400044	     44.96012404	      2.03643869	     -4.95765842	     71.47440934	      1.24746377	     -2.62103490	    -15.03875774	     -3.58956623	     -7.72926367	     17.40668509	      0.30380397	     -1.04543521
     13.94000000	     -6.41004013	     -3.89310693	      0.10820589	      2.28238478	      0.99821404	      1.00456988	     45.60782332	      2.08679968	     -5.71246700	     67.10968622	      1.17128498	     -2.33038782	    -16.37149356	     -3.65914338	     -8.36776593	     15.90240260	      0.27754928	     -5.52932775
